<?xml version="1.0" encoding="UTF-8" standalone="no"?>
<!DOCTYPE svg PUBLIC "-//W3C//DTD SVG 1.1//EN" "http://www.w3.org/Graphics/SVG/1.1/DTD/svg11.dtd">
<svg version="1.1" xmlns="http://www.w3.org/2000/svg" xmlns:xlink="http://www.w3.org/1999/xlink" preserveAspectRatio="xMidYMid meet" viewBox="187.89717813656682 95.78193989276538 140.06299678938507 219.50900000000001" width="136.06" height="215.51"><defs><path d="M273.74 147.49C279.25 147.49 283.73 151.96 283.73 157.48C283.73 188.44 283.73 271.34 283.73 302.3C283.73 307.82 279.25 312.29 273.74 312.29C259.17 312.29 225.46 312.29 210.89 312.29C205.37 312.29 200.9 307.82 200.9 302.3C200.9 271.34 200.9 188.44 200.9 157.48C200.9 151.96 205.37 147.49 210.89 147.49C225.46 147.49 259.17 147.49 273.74 147.49Z" id="crB0ufMyw"></path><path d="M298.93 96.84L300.24 96.94L301.54 97.09L302.83 97.28L304.11 97.53L305.37 97.81L306.61 98.15L307.84 98.53L309.04 98.95L310.22 99.42L311.38 99.94L312.52 100.5L313.62 101.1L314.7 101.75L315.75 102.44L316.77 103.17L317.76 103.94L318.72 104.76L319.64 105.62L320.52 106.52L321.36 107.45L322.17 108.44L322.93 109.46L323.65 110.52L324.33 111.61L324.96 112.75L262.15 145.75L261.57 144.58L261.05 143.4L260.59 142.2L260.18 141L259.83 139.78L259.53 138.55L259.3 137.31L259.11 136.07L258.98 134.82L258.9 133.57L258.88 132.31L258.91 131.06L258.99 129.8L259.12 128.55L259.3 127.29L259.54 126.05L259.82 124.81L260.15 123.58L260.54 122.35L260.97 121.14L261.44 119.94L261.97 118.75L262.54 117.58L263.16 116.42L263.82 115.28L264.53 114.16L265.28 113.06L266.08 111.98L266.92 110.93L267.8 109.9L268.72 108.9L269.69 107.92L270.7 106.97L271.75 106.06L272.84 105.17L273.96 104.32L275.13 103.51L276.34 102.73L277.58 101.98L278.86 101.28L280.17 100.62L281.49 100.02L282.81 99.47L284.15 98.97L285.49 98.53L286.83 98.13L288.18 97.79L289.53 97.5L290.89 97.25L292.24 97.06L293.59 96.92L294.93 96.83L296.27 96.78L297.6 96.79L298.93 96.84Z" id="c3ulEHAmQW"></path><path d="M260.33 121.32C265.81 120.74 270.73 124.71 271.32 130.2C274.59 160.99 283.35 243.42 286.62 274.21C287.21 279.69 283.23 284.61 277.74 285.2C263.26 286.74 229.74 290.3 215.25 291.84C209.76 292.42 204.84 288.45 204.26 282.96C200.99 252.17 192.23 169.74 188.95 138.95C188.37 133.47 192.35 128.55 197.83 127.96C212.32 126.42 245.84 122.86 260.33 121.32Z" id="a3jSbpuAJS"></path><path d="M307.77 134.2C307.77 142.68 281.14 149.57 248.33 149.57C215.53 149.57 188.9 142.68 188.9 134.2C188.9 125.71 215.53 118.83 248.33 118.83C281.14 118.83 307.77 125.71 307.77 134.2Z" id="h5CgavS7rr"></path><path d="M222.93 147.49C217.41 147.49 212.94 151.96 212.94 157.48C212.94 188.44 212.94 271.34 212.94 302.3C212.94 307.82 217.41 312.29 222.93 312.29C237.5 312.29 271.21 312.29 285.78 312.29C291.29 312.29 295.77 307.82 295.77 302.3C295.77 271.34 295.77 188.44 295.77 157.48C295.77 151.96 291.29 147.49 285.78 147.49C271.21 147.49 237.5 147.49 222.93 147.49Z" id="aHyGOMTpW"></path><path d="M236.34 121.32C230.85 120.74 225.93 124.71 225.35 130.2C222.08 160.99 213.32 243.42 210.04 274.21C209.46 279.69 213.44 284.61 218.92 285.2C233.41 286.74 266.93 290.3 281.42 291.84C286.9 292.42 291.82 288.45 292.41 282.96C295.68 252.17 304.44 169.74 307.71 138.95C308.3 133.47 304.32 128.55 298.83 127.96C284.35 126.42 250.83 122.86 236.34 121.32Z" id="a1fpe3GWoV"></path><path d="M260.97 230.29C265.67 233.19 267.13 239.34 264.24 244.04C262.07 247.57 260.78 249.67 258.6 253.2C255.71 257.9 249.56 259.37 244.86 256.47C241.33 254.3 239.23 253.01 235.7 250.84C231 247.94 229.53 241.79 232.42 237.09C234.6 233.56 235.89 231.46 238.06 227.93C240.95 223.23 247.11 221.76 251.81 224.66C255.34 226.83 257.44 228.12 260.97 230.29Z" id="gdq2gtLVL"></path><path d="M278.79 147.66C284.21 148.69 287.77 153.92 286.74 159.34C285.96 163.41 285.51 165.83 284.73 169.91C283.7 175.33 278.47 178.89 273.05 177.86C268.97 177.08 266.56 176.62 262.48 175.85C257.06 174.82 253.5 169.59 254.53 164.17C255.31 160.09 255.76 157.67 256.54 153.6C257.57 148.18 262.8 144.62 268.22 145.65C272.3 146.42 274.71 146.88 278.79 147.66Z" id="aIrLRCJXI"></path><path d="M223.12 179.07C228.06 176.62 234.06 178.65 236.5 183.59C238.34 187.31 239.43 189.52 241.28 193.24C243.72 198.18 241.7 204.17 236.75 206.62C233.03 208.46 230.83 209.55 227.11 211.39C222.16 213.84 216.17 211.82 213.72 206.87C211.88 203.15 210.79 200.95 208.95 197.23C206.5 192.28 208.53 186.29 213.47 183.84C217.19 182 219.4 180.91 223.12 179.07Z" id="d2g3gH0NRd"></path><path d="M265.54 267.63C271.03 268.1 275.11 272.93 274.65 278.43C274.3 282.56 274.09 285.01 273.74 289.15C273.27 294.65 268.44 298.73 262.94 298.26C258.81 297.91 256.36 297.7 252.22 297.35C246.72 296.89 242.64 292.05 243.11 286.55C243.46 282.42 243.67 279.97 244.02 275.83C244.48 270.34 249.32 266.26 254.82 266.72C258.95 267.07 261.4 267.28 265.54 267.63Z" id="k37BXM4h4g"></path></defs><g><g><use xlink:href="#crB0ufMyw" opacity="1" fill="#d6d5f5" fill-opacity="1"></use></g><g><use xlink:href="#c3ulEHAmQW" opacity="1" fill="#f8d239" fill-opacity="0.73"></use></g><g><use xlink:href="#a3jSbpuAJS" opacity="1" fill="#d6d5f5" fill-opacity="1"></use></g><g><use xlink:href="#h5CgavS7rr" opacity="1" fill="#d6d5f5" fill-opacity="1"></use></g><g><use xlink:href="#aHyGOMTpW" opacity="1" fill="#d6d5f5" fill-opacity="1"></use></g><g><use xlink:href="#a1fpe3GWoV" opacity="1" fill="#d6d5f5" fill-opacity="1"></use></g><g><use xlink:href="#gdq2gtLVL" opacity="1" fill="#ffffff" fill-opacity="0.66"></use></g><g><use xlink:href="#aIrLRCJXI" opacity="1" fill="#ffffff" fill-opacity="0.8"></use></g><g><use xlink:href="#d2g3gH0NRd" opacity="1" fill="#ffffff" fill-opacity="0.73"></use></g><g><use xlink:href="#k37BXM4h4g" opacity="1" fill="#ffffff" fill-opacity="0.39"></use></g></g></svg>