<?xml version="1.0" encoding="UTF-8" standalone="no"?>
<!DOCTYPE svg PUBLIC "-//W3C//DTD SVG 1.1//EN" "http://www.w3.org/Graphics/SVG/1.1/DTD/svg11.dtd">
<svg version="1.1" xmlns="http://www.w3.org/2000/svg" xmlns:xlink="http://www.w3.org/1999/xlink" preserveAspectRatio="xMidYMid meet" viewBox="498.5196859733333 367.76582662048287 80.01134202666657 105.80810404618387" width="76.01" height="101.81"><defs><path d="M501.4 465.11C501.4 465.11 501.4 465.11 501.4 465.11C501.4 464.62 501.8 464.22 502.29 464.22C504.41 464.22 521.32 464.22 523.44 464.22C523.67 464.22 523.9 464.31 524.07 464.48C524.23 464.65 524.33 464.88 524.33 465.11C524.33 465.47 524.33 468.32 524.33 468.68C524.33 469.17 523.93 469.57 523.44 469.57C522.03 469.57 514.98 469.57 502.29 469.57C502.29 469.57 502.29 469.57 502.29 469.57C501.8 469.57 501.4 469.17 501.4 468.68C501.4 468.21 501.4 467.02 501.4 465.11Z" id="i5szNopZdt"></path><path d="M538.81 370.03C538.81 370.03 538.81 370.03 538.81 370.03C538.86 369.28 539.5 368.72 540.25 368.77C540.61 368.79 542.41 368.91 545.65 369.13C545.65 369.13 545.65 369.13 545.65 369.13C546.01 369.16 546.35 369.32 546.58 369.59C546.82 369.86 546.94 370.22 546.91 370.57C546.77 372.66 545.64 389.33 545.5 391.41C545.45 392.16 544.8 392.72 544.06 392.67C543.52 392.63 539.19 392.34 538.65 392.31C537.91 392.26 537.34 391.61 537.39 390.87C537.58 388.09 538.05 381.14 538.81 370.03Z" id="a2onhcSqS"></path><path d="M509.81 395.17C509.81 395.17 509.81 395.17 509.81 395.17C509.81 389.12 514.71 384.21 520.76 384.21C523.68 384.21 538.29 384.21 564.58 384.21C564.58 384.21 564.58 384.21 564.58 384.21C567.48 384.21 570.27 385.37 572.32 387.42C574.38 389.47 575.53 392.26 575.53 395.17C575.53 401.61 575.53 453.17 575.53 459.62C575.53 465.67 570.63 470.57 564.58 470.57C560.2 470.57 525.14 470.57 520.76 470.57C514.71 470.57 509.81 465.67 509.81 459.62C509.81 451.03 509.81 429.54 509.81 395.17Z" id="i2b9GPHTMc"></path><path d="M514.79 392.99L559.89 392.99L559.89 424.32L514.79 424.32L514.79 392.99Z" id="aenqaYdwo"></path><path d="M518.78 401.33C518.78 397.74 521.69 394.83 525.28 394.83C525.28 394.83 525.28 394.83 525.28 394.83C527 394.83 528.65 395.51 529.87 396.73C531.09 397.95 531.77 399.6 531.77 401.33C531.77 401.33 531.77 401.33 531.77 401.33C531.77 404.92 528.86 407.83 525.28 407.83C525.28 407.83 525.28 407.83 525.28 407.83C521.69 407.83 518.78 404.92 518.78 401.33C518.78 401.33 518.78 401.33 518.78 401.33Z" id="aTxi1D2kH"></path><path d="M540.11 401.33C540.11 397.74 543.02 394.83 546.61 394.83C546.61 394.83 546.61 394.83 546.61 394.83C548.33 394.83 549.99 395.51 551.2 396.73C552.42 397.95 553.11 399.6 553.11 401.33C553.11 401.33 553.11 401.33 553.11 401.33C553.11 404.92 550.2 407.83 546.61 407.83C546.61 407.83 546.61 407.83 546.61 407.83C543.02 407.83 540.11 404.92 540.11 401.33C540.11 401.33 540.11 401.33 540.11 401.33Z" id="a2JnGUjYG9"></path><path d="M530.48 421.29C533.53 422.44 538.36 421.9 541.14 420.18C543.91 418.46 550.18 412.12 547.12 410.97C544.07 409.82 525.57 411.55 522.79 413.27C520.02 414.99 527.42 420.13 530.48 421.29Z" id="b1rYzMSnZa"></path><path d="M503.98 458.61C503.98 458.61 503.98 458.61 503.98 458.61C504.47 458.61 504.87 459 504.87 459.5C504.87 460.41 504.87 467.74 504.87 468.65C504.87 468.89 504.78 469.12 504.61 469.28C504.45 469.45 504.22 469.55 503.98 469.55C503.62 469.55 500.77 469.55 500.41 469.55C499.92 469.55 499.52 469.15 499.52 468.65C499.52 467.74 499.52 460.41 499.52 459.5C499.52 459 499.92 458.61 500.41 458.61C500.89 458.61 502.08 458.61 503.98 458.61Z" id="bEFScG62Y"></path><path d="M562.65 437.27C562.65 437.27 562.65 437.27 562.65 437.27C563.14 437.27 563.54 437.67 563.54 438.16C563.54 439.48 563.54 449.99 563.54 451.31C563.54 451.55 563.45 451.77 563.28 451.94C563.11 452.11 562.89 452.2 562.65 452.2C562.29 452.2 559.44 452.2 559.08 452.2C558.59 452.2 558.19 451.8 558.19 451.31C558.19 449.99 558.19 439.48 558.19 438.16C558.19 437.67 558.59 437.27 559.08 437.27C559.56 437.27 560.75 437.27 562.65 437.27Z" id="bsWcRvjpT"></path><path d="M528.07 465.11C528.07 465.11 528.07 465.11 528.07 465.11C528.07 464.62 528.47 464.22 528.96 464.22C531.07 464.22 547.99 464.22 550.1 464.22C550.34 464.22 550.57 464.31 550.73 464.48C550.9 464.65 550.99 464.88 550.99 465.11C550.99 465.47 550.99 468.32 550.99 468.68C550.99 469.17 550.6 469.57 550.1 469.57C548.69 469.57 541.64 469.57 528.96 469.57C528.96 469.57 528.96 469.57 528.96 469.57C528.47 469.57 528.07 469.17 528.07 468.68C528.07 468.21 528.07 467.02 528.07 465.11Z" id="b17Wq3RyTf"></path><path d="M530.65 458.61C530.65 458.61 530.65 458.61 530.65 458.61C531.14 458.61 531.54 459 531.54 459.5C531.54 460.41 531.54 467.74 531.54 468.65C531.54 468.89 531.45 469.12 531.28 469.28C531.11 469.45 530.88 469.55 530.65 469.55C530.29 469.55 527.44 469.55 527.08 469.55C526.59 469.55 526.19 469.15 526.19 468.65C526.19 467.74 526.19 460.41 526.19 459.5C526.19 459 526.59 458.61 527.08 458.61C527.55 458.61 528.74 458.61 530.65 458.61Z" id="cc1Gcc8GP"></path></defs><g><g><use xlink:href="#i5szNopZdt" opacity="1" fill="#434343" fill-opacity="1"></use><g><use xlink:href="#i5szNopZdt" opacity="1" fill-opacity="0" stroke="#000000" stroke-width="1" stroke-opacity="0"></use></g></g><g><use xlink:href="#a2onhcSqS" opacity="1" fill="#b79f9f" fill-opacity="1"></use><g><use xlink:href="#a2onhcSqS" opacity="1" fill-opacity="0" stroke="#000000" stroke-width="1" stroke-opacity="0"></use></g></g><g><use xlink:href="#i2b9GPHTMc" opacity="1" fill="#b79f9f" fill-opacity="1"></use><g><use xlink:href="#i2b9GPHTMc" opacity="1" fill-opacity="0" stroke="#000000" stroke-width="1" stroke-opacity="0"></use></g></g><g><use xlink:href="#aenqaYdwo" opacity="1" fill="#cfe2f3" fill-opacity="1"></use><g><use xlink:href="#aenqaYdwo" opacity="1" fill-opacity="0" stroke="#000000" stroke-width="1" stroke-opacity="0"></use></g></g><g><use xlink:href="#aTxi1D2kH" opacity="1" fill="#434343" fill-opacity="1"></use><g><use xlink:href="#aTxi1D2kH" opacity="1" fill-opacity="0" stroke="#000000" stroke-width="1" stroke-opacity="0"></use></g></g><g><use xlink:href="#a2JnGUjYG9" opacity="1" fill="#434343" fill-opacity="1"></use><g><use xlink:href="#a2JnGUjYG9" opacity="1" fill-opacity="0" stroke="#000000" stroke-width="1" stroke-opacity="0"></use></g></g><g><use xlink:href="#b1rYzMSnZa" opacity="1" fill="#434343" fill-opacity="1"></use><g><use xlink:href="#b1rYzMSnZa" opacity="1" fill-opacity="0" stroke="#000000" stroke-width="1" stroke-opacity="0"></use></g></g><g><use xlink:href="#bEFScG62Y" opacity="1" fill="#434343" fill-opacity="1"></use><g><use xlink:href="#bEFScG62Y" opacity="1" fill-opacity="0" stroke="#000000" stroke-width="1" stroke-opacity="0"></use></g></g><g><use xlink:href="#bsWcRvjpT" opacity="1" fill="#434343" fill-opacity="1"></use><g><use xlink:href="#bsWcRvjpT" opacity="1" fill-opacity="0" stroke="#000000" stroke-width="1" stroke-opacity="0"></use></g></g><g><use xlink:href="#b17Wq3RyTf" opacity="1" fill="#434343" fill-opacity="1"></use><g><use xlink:href="#b17Wq3RyTf" opacity="1" fill-opacity="0" stroke="#000000" stroke-width="1" stroke-opacity="0"></use></g></g><g><use xlink:href="#cc1Gcc8GP" opacity="1" fill="#434343" fill-opacity="1"></use><g><use xlink:href="#cc1Gcc8GP" opacity="1" fill-opacity="0" stroke="#000000" stroke-width="1" stroke-opacity="0"></use></g></g></g></svg>