<svg version="1.1" viewBox="850.0 340.0 960.0 540.0" fill="none" stroke="none" stroke-linecap="square" stroke-miterlimit="10" xmlns:xlink="http://www.w3.org/1999/xlink" xmlns="http://www.w3.org/2000/svg"><clipPath id="g54efada71b_0_0.0"><path d="m0 0l960.0 0l0 540.0l-960.0 0l0 -540.0z" clip-rule="nonzero"/></clipPath><g clip-path="url(#g54efada71b_0_0.0)"><path fill="#434343" d="m752.09845 487.668l0 0c0 -0.73928833 0.5993042 -1.3385925 1.338562 -1.3385925l31.716492 0c0.3550415 0 0.6954956 0.14102173 0.9465332 0.39205933c0.2510376 0.2510376 0.39208984 0.5915222 0.39208984 0.9465332l0 5.3542786c0 0.73928833 -0.5993042 1.338623 -1.338623 1.338623l-31.716492 0l0 0c-0.7392578 0 -1.338562 -0.5993347 -1.338562 -1.338623z" fill-rule="evenodd"/><path fill="#b79f9f" d="m808.2112 345.04315l0 0c0.0758667 -1.1190491 1.0446167 -1.9651184 2.1636963 -1.88974l8.104919 0.54592896l0 0c0.5373535 0.036193848 1.038269 0.2843933 1.3925171 0.6899719c0.35424805 0.40560913 0.5327759 0.93536377 0.49639893 1.4727478l-2.1189575 31.254639c-0.075927734 1.1190491 -1.0446167 1.9651184 -2.1636963 1.88974l-8.104919 -0.54592896c-1.1190796 -0.07537842 -1.9647827 -1.0436707 -1.888916 -2.1627197z" fill-rule="evenodd"/><path fill="#b79f9f" d="m764.7139 382.74835l0 0c0 -9.074463 7.356262 -16.430756 16.430786 -16.430756l65.72107 0l0 0c4.357727 0 8.536987 1.7310791 11.618347 4.812439c3.0813599 3.0813904 4.812439 7.26062 4.812439 11.618317l0 96.68176c0 9.074463 -7.356262 16.430786 -16.430786 16.430786l-65.72107 0c-9.074524 0 -16.430786 -7.3563232 -16.430786 -16.430786z" fill-rule="evenodd"/><path fill="#cfe2f3" d="m772.17847 379.48273l67.653564 0l0 46.992126l-67.653564 0z" fill-rule="evenodd"/><path fill="#434343" d="m778.16486 391.99115l0 0c0 -5.3836975 4.36438 -9.748016 9.748047 -9.748016l0 0c2.5853271 0 5.0647583 1.027008 6.8928833 2.855133c1.828125 1.8280945 2.8551636 4.307556 2.8551636 6.8928833l0 0c0 5.3836975 -4.36438 9.748047 -9.748047 9.748047l0 0c-5.383667 0 -9.748047 -4.3643494 -9.748047 -9.748047z" fill-rule="evenodd"/><path fill="#434343" d="m810.16486 391.99115l0 0c0 -5.3836975 4.36438 -9.748016 9.748047 -9.748016l0 0c2.5853271 0 5.0647583 1.027008 6.8928833 2.855133c1.828125 1.8280945 2.8551636 4.307556 2.8551636 6.8928833l0 0c0 5.3836975 -4.36438 9.748047 -9.748047 9.748047l0 0c-5.383667 0 -9.748047 -4.3643494 -9.748047 -9.748047z" fill-rule="evenodd"/><path fill="#434343" d="m784.1925 409.9042c-4.161438 2.577942 6.937317 10.296814 11.522522 12.023712c4.585266 1.7268982 11.827454 0.9155884 15.988892 -1.662323c4.161438 -2.5779114 13.565002 -12.078308 8.979736 -13.805176c-4.585205 -1.7268982 -32.329712 0.86587524 -36.49115 3.4437866z" fill-rule="evenodd"/><path fill="#434343" d="m755.9724 477.90814l0 0c0.73931885 0 1.338623 0.5993042 1.338623 1.3385925l0 13.732239c0 0.3550415 -0.14105225 0.6954956 -0.39208984 0.9465332c-0.2510376 0.2510376 -0.5914917 0.39208984 -0.9465332 0.39208984l-5.354248 0c-0.73931885 0 -1.338623 -0.5993347 -1.338623 -1.338623l0 -13.732239c0 -0.73928833 0.5993042 -1.3385925 1.338623 -1.3385925z" fill-rule="evenodd"/><path fill="#434343" d="m843.97375 445.90814l0 0c0.7392578 0 1.338562 0.5993042 1.338562 1.3385925l0 19.716492c0 0.355011 -0.14099121 0.6954956 -0.3920288 0.9465332c-0.2510376 0.2510376 -0.59155273 0.39208984 -0.9465332 0.39208984l-5.354309 0c-0.73931885 0 -1.338623 -0.5993347 -1.338623 -1.338623l0 -19.716492c0 -0.73928833 0.5993042 -1.3385925 1.338623 -1.3385925z" fill-rule="evenodd"/><path fill="#434343" d="m792.09845 487.668l0 0c0 -0.73928833 0.5993042 -1.3385925 1.338562 -1.3385925l31.716492 0c0.3550415 0 0.6954956 0.14102173 0.9465332 0.39205933c0.2510376 0.2510376 0.39208984 0.5915222 0.39208984 0.9465332l0 5.3542786c0 0.73928833 -0.5993042 1.338623 -1.338623 1.338623l-31.716492 0l0 0c-0.7392578 0 -1.338562 -0.5993347 -1.338562 -1.338623z" fill-rule="evenodd"/><path fill="#434343" d="m795.9724 477.90814l0 0c0.73931885 0 1.338623 0.5993042 1.338623 1.3385925l0 13.732239c0 0.3550415 -0.14105225 0.6954956 -0.39208984 0.9465332c-0.2510376 0.2510376 -0.5914917 0.39208984 -0.9465332 0.39208984l-5.354248 0c-0.73931885 0 -1.338623 -0.5993347 -1.338623 -1.338623l0 -13.732239c0 -0.73928833 0.5993042 -1.3385925 1.338623 -1.3385925z" fill-rule="evenodd"/></g></svg>